<svg xmlns="http://www.w3.org/2000/svg" viewBox="0 0 154.71 148.44"><defs><style>.cls-1{fill:#665547;}.cls-2{fill:#f0dbcb;}.cls-3{fill:#c58b59;}.cls-4{fill:#a5c188;}.cls-5{fill:#a0ba84;}</style></defs><title>UIC-logo</title><g id="Calque_2" data-name="Calque 2"><g id="Calque_1-2" data-name="Calque 1"><path class="cls-1" d="M138.77,53.72a82.9,82.9,0,0,1,15.81,44.57,60,60,0,0,1-1.32,17.33c-3.5,14.66-14.06,22.77-27.68,27.44-10.27,3.52-21,4.47-31.72,5-15.54.78-31.06.63-46.14-3.5a78,78,0,0,1-18.91-7.86c-12.53-7.4-18.65-19.09-19.8-33.43a78.43,78.43,0,0,1,2.42-26c2.18-.06,2.89,1.75,3.84,3.14a50.6,50.6,0,0,0,6.49,8.22,25.32,25.32,0,0,0,18,7.11,112.78,112.78,0,0,0,35.79-5.37c1.36-.45,2.79-1.32,4.26-.19.14.48.13-.17.18.32,1,11.06.45,22.16,1.13,33.23.11,1.85-1.11,3-3,3.19a9.43,9.43,0,0,1-1.49.11c-9.61-.53-19.18,1.39-26,.62,20.84.55,44.43.27,67.43,0a8.26,8.26,0,0,0-3.13-.19c-8.24.59-16.43-.81-24.67-.49-4.89.19-5.33-.36-5.91-5.12-.65-5.32-1.47-10.64-1.39-16,.1-6.26,2-11.69,6.77-16.06,3.14-2.87,6.12-5.9,9.84-8,1.38-.79,2.76-1.81,4.55-.9.48,2.15-1.14,3.2-2.27,4.41-3.66,3.92-7.85,7.36-10.92,11.82-.76,1.11-1.84,2.08-1.73,3.67,1.16,1.25,2.55.54,3.82.31,15.19-2.74,26.16-13.4,29.28-28.41.21-1,.37-2,.66-2.92a5.58,5.58,0,0,1,2.21-2.9c4-2.83,6.9-6.71,9.93-10.47C136,55.16,136.81,53.6,138.77,53.72Z"/><path class="cls-2" d="M91,37.11,78.94,14.93a91.12,91.12,0,0,1,7.81-6.1c7-4.4,14.27-7.86,23-7,12.66,1.19,22.47,6.8,29,17.69s5.38,21.81.22,33.31a17.06,17.06,0,0,1-.9,2,66.1,66.1,0,0,1-5.57,6.77c-3,3-6.14,5.76-9.23,8.63-1.53-1.33-.56-3.3-1.3-5.11-6.82,6.07-15,9.62-22.89,13.78-1.53.81-3.12,1.8-4.7,0-.44-2.54,1.19-4.54,1.85-6.77,2.07-7.07.57-13.86-1.2-20.65-.5-1.93-1.38-3.75-1.7-5.74-.15-1.85,1-3,2.25-4a59.11,59.11,0,0,1,16.83-9.6c-5.55-.24-11.6-.08-17.1,3.2C94,36.08,92.91,37.56,91,37.11Z"/><path class="cls-3" d="M79.44,90a90.34,90.34,0,0,1-26.38,6c-4.21.32-8.42.61-12.63.76-10.55.38-18.24-4.58-24.09-13-1.55-2.23-3.27-4.34-4.91-6.51-1.66-3-3.3-6.12-5-9.15C1.6,59.56-1.44,50.63.7,40.61a36,36,0,0,1,9.36-17.19A82.17,82.17,0,0,1,40.73,2.57C54.06-2.58,65.93,0,76,10.37c1.12,1.16,2.29,2.27,3.44,3.41a54.65,54.65,0,0,1,6.53,8.88c2.57,4.23,5.09,8.53,6,13.51-1.35,3.11-4,5.43-5.35,8.53-.51,1.12-1.32,2.32-2.82,2-1.34-.3-1.37-1.67-1.54-2.75A21.16,21.16,0,0,0,73.06,29.5a4.52,4.52,0,0,0-2.11-1A46.3,46.3,0,0,1,82,53.06c.85,6.93-.85,14.15-1.13,21.31-2.65-.31-3-1.76-3.51-3C72.48,59.44,63,54,50.79,52.18a13.23,13.23,0,0,0-6.45.79c4.84,4.77,6.94,10.68,9.17,16.48,3.56,9.27,10.42,13.65,20.14,14,.37,0,.73-.1,1.24-.84-2-7.67-7.38-13.49-13-19A2.61,2.61,0,0,1,65.83,63c7.8,5.41,13.35,12.36,14.52,22.11C80.55,86.73,80.86,88.59,79.44,90Z"/><path class="cls-3" d="M95.24,79.13C91.51,82.7,88,85,83.68,89.05a33.87,33.87,0,0,1-.43-3.55c0-7.48,0-15,0-22.43,0-4.32.78-8.4,3.92-11.64C89.54,49,92,46.59,94.41,44.18c1.47,6,4.1,11.86,4.19,17.94.06,4.21-1.33,8.42-2.17,12.63C96.22,75.81,95.59,78.1,95.24,79.13Z"/><path class="cls-4" d="M95.1,79C96,78.59,97.26,78,98,77.6c6.32-3.43,12.65-6.85,18.84-10.51,2.31-1.37,4.26-3.37,7-5.56V69c-.94,18.87-18.74,34.52-37.05,33.23,3.66-8.87,11.22-14.19,17.05-21.22a6.11,6.11,0,0,0-2,.65c-4.55,3.67-9.21,7.22-13.5,11.17C84.8,96,84,100.56,84.12,105c.15,6.83.84,13.65,1.31,20.7l35.47,1.51-.05,1a746.3,746.3,0,0,1-76.71,0l0-1.17,35.34-1.17V90c.25-11.82-8.24-25.69-16.3-26.89,2.64,3.13,5.67,6.16,8,9.65s3.9,7.33,6,11.35c-10.66.51-18.2-2-22.76-10.74-1.6-3.08-2.52-6.53-4.18-9.57C48,59.77,45.36,55.94,42.9,52,50.51,49.87,58,52,65.12,55.81,72.48,59.68,76.55,66.24,80,73.7c.07-.89.16-1.79.22-2.68.36-5.59.75-11.17,1-16.76a10.4,10.4,0,0,0-.46-3.59c-2.68-8.46-5.48-16.87-12.21-23.22-.13-.13-.08-.46-.1-.7,6.94.88,11.32,6.4,15.53,19.77,2.58-3.63,4.46-7.27,7.51-10.56,7-6,15.28-6.72,24.92-5.73-1.82.86-3,1.32-4,1.93C106.9,35.33,103,36.87,98,40.77a27.79,27.79,0,0,0-3.63,3.41C92.49,47,90.19,49.43,88,52a13.79,13.79,0,0,0-3.53,8.09c-.62,8.59-.1,17.18-.32,26.35C88.59,83.75,90.88,80.9,95.1,79Z"/><path class="cls-5" d="M104.3,132.57a241.45,241.45,0,0,1-43.1.05C63.91,130.68,100,130.51,104.3,132.57Z"/></g></g></svg>